<svg xmlns="http://www.w3.org/2000/svg" xmlns:xlink="http://www.w3.org/1999/xlink" id="Layer_1" x="0" y="0" version="1.1" viewBox="0 0 636 300" xml:space="preserve" style="enable-background:new 0 0 636 300"><style type="text/css">.st5{fill:#8065e0}.st6{fill:#fff}.st19{fill:#8a6fe8}.st20{fill:url(#SVGID_1_)}.st21{fill:#522cd5}.st22{fill:url(#SVGID_2_)}.st23{fill:url(#SVGID_3_)}.st24{fill:url(#SVGID_4_)}.st25{fill:url(#SVGID_5_)}.st26{fill:#d8cff7}.st27{fill:#512bd4}.st28{fill:url(#SVGID_6_)}.st29{fill:#a08be8}.st30{fill:url(#SVGID_7_)}.st31{fill:url(#SVGID_8_)}.st32{fill:url(#SVGID_9_)}.st33{fill:url(#SVGID_10_)}.st34{fill:url(#SVGID_11_)}.st35{fill:url(#SVGID_12_)}.st40{fill:#b3afab}.st41{fill:#a7a4a0}.st48{fill:#e1dfdd}.st49{fill:url(#SVGID_13_)}.st50{fill:url(#SVGID_14_)}.st51{fill:url(#SVGID_15_)}.st52{fill:url(#SVGID_16_)}.st57{fill:#c8c6c4}.st58{fill:#605d5a}.st59{fill:#797673}.st93{fill:#a3c9f6}.st102{fill:#84817d}.st126{fill:#cccac7}.st134{fill:#908d89}.st139{fill:#cae0fa}.st140{fill:#4995ee}.st182{fill:#58d0db}.st184{fill:#9fe4eb}.st199{fill:#737373}.st235{fill:#57cacf}.st243{fill:#c5d43b}.st344{fill:#0769dc}.st349{fill:#1189a5}.st461{fill:#1ba6c5}</style><g><radialGradient id="SVGID_1_" cx="1770.176" cy="4854.051" r="306.748" gradientTransform="matrix(0.902 0.0245 -0.1375 0.5179 -612.7927 -2384.9304)" gradientUnits="userSpaceOnUse"><stop offset=".182" style="stop-color:#e1eff9"/><stop offset=".914" style="stop-color:#b8d6f7"/></radialGradient><path d="M467.43,218.16c-110.5,45.41-273.32,55.48-325.37,4.52c-60.12-58.85,34.4-130.29,121.18-97.13 c57.67,22.03,133.27,18.38,181.12,12.24C525.48,127.37,542.53,187.3,467.43,218.16z" class="st20"/><g><g><rect width="2" height="1" x="262.57" y="70.8" class="st134" transform="matrix(0.5836 -0.812 0.812 0.5836 51.845 243.7048)"/></g><g><path d="M309.19,105.27l-1.7-1.22l1.16-1.62l1.7,1.22L309.19,105.27z M304.1,101.62l-1.7-1.22l1.17-1.62l1.7,1.22 L304.1,101.62z M299.01,97.97l-1.7-1.22l1.16-1.62l1.7,1.22L299.01,97.97z M293.92,94.32l-1.7-1.22l1.17-1.62l1.7,1.22 L293.92,94.32z M288.84,90.66l-1.7-1.22l1.16-1.62l1.7,1.22L288.84,90.66z M283.75,87.01l-1.7-1.22l1.17-1.62l1.7,1.22 L283.75,87.01z M278.66,83.36l-1.7-1.22l1.16-1.62l1.7,1.22L278.66,83.36z M273.57,79.71l-1.7-1.22l1.17-1.62l1.7,1.22 L273.57,79.71z M268.48,76.05l-1.7-1.22l1.16-1.62l1.7,1.22L268.48,76.05z" class="st134"/></g><g><rect width="2" height="1" x="312.57" y="106.69" class="st134" transform="matrix(0.583 -0.8125 0.8125 0.583 43.6747 299.4698)"/></g></g><g><path d="M336.06,97.1l-2-0.1l0.1-2l2,0.1L336.06,97.1z M336.35,91.1l-2-0.1l0.1-2l2,0.1L336.35,91.1z M336.64,85.11 l-2-0.1l0.1-2l2,0.1L336.64,85.11z" class="st134"/></g><g><path d="M362.6,97.76l-1.22-1.58l1.58-1.22l1.22,1.58L362.6,97.76z M367.35,94.1l-1.22-1.58l1.58-1.22l1.22,1.58 L367.35,94.1z M372.1,90.44l-1.22-1.58l1.59-1.22l1.22,1.58L372.1,90.44z M376.86,86.78l-1.22-1.58l1.58-1.22l1.22,1.58 L376.86,86.78z M381.61,83.12l-1.22-1.58l1.58-1.22l1.22,1.58L381.61,83.12z M386.36,79.46l-1.22-1.58l1.59-1.22l1.22,1.58 L386.36,79.46z M391.12,75.8l-1.22-1.58l1.58-1.22l1.22,1.58L391.12,75.8z" class="st134"/></g><g><path d="M364.56,117.56l-0.39-1.96l1.96-0.39l0.39,1.96L364.56,117.56z M370.44,116.4l-0.39-1.96l1.96-0.39 l0.39,1.96L370.44,116.4z M376.33,115.23l-0.39-1.96l1.96-0.39l0.39,1.96L376.33,115.23z M382.21,114.07l-0.39-1.96l1.96-0.39 l0.39,1.96L382.21,114.07z M388.1,112.9l-0.39-1.96l1.96-0.39l0.39,1.96L388.1,112.9z M393.99,111.74l-0.39-1.96l1.96-0.39 l0.39,1.96L393.99,111.74z M399.87,110.57l-0.39-1.96l1.96-0.39l0.39,1.96L399.87,110.57z M405.76,109.41l-0.39-1.96l1.96-0.39 l0.39,1.96L405.76,109.41z M411.65,108.24l-0.39-1.96l1.96-0.39l0.39,1.96L411.65,108.24z M417.53,107.07l-0.39-1.96l1.96-0.39 l0.39,1.96L417.53,107.07z M423.42,105.91l-0.39-1.96l1.96-0.39l0.39,1.96L423.42,105.91z M429.3,104.74l-0.39-1.96l1.96-0.39 l0.39,1.96L429.3,104.74z M435.19,103.58l-0.39-1.96l1.96-0.39l0.39,1.96L435.19,103.58z M441.07,102.41l-0.39-1.96l1.96-0.39 l0.39,1.96L441.07,102.41z M446.96,101.25l-0.39-1.96l1.96-0.39l0.39,1.96L446.96,101.25z" class="st134"/></g><g><path d="M311.92,118.66l-1.81-0.49l0.52-1.93l1.81,0.49L311.92,118.66z M306.25,117.13l-1.93-0.52l0.52-1.93 l1.93,0.52L306.25,117.13z M300.46,115.56l-1.93-0.52l0.52-1.93l1.93,0.52L300.46,115.56z M294.67,113.99l-1.93-0.52l0.52-1.93 l1.93,0.52L294.67,113.99z M288.88,112.42l-1.93-0.52l0.52-1.93l1.93,0.52L288.88,112.42z M283.09,110.85l-1.93-0.52l0.52-1.93 l1.93,0.52L283.09,110.85z M277.29,109.28l-1.93-0.52l0.52-1.93l1.93,0.52L277.29,109.28z M271.5,107.71l-1.93-0.52l0.52-1.93 l1.93,0.52L271.5,107.71z M265.71,106.14l-1.93-0.52l0.52-1.93l1.93,0.52L265.71,106.14z M259.92,104.57l-1.93-0.52l0.52-1.93 l1.93,0.52L259.92,104.57z M254.13,103l-1.93-0.52l0.52-1.93l1.93,0.52L254.13,103z M248.34,101.43l-1.93-0.52l0.52-1.93 l1.93,0.52L248.34,101.43z M242.55,99.86l-1.93-0.52l0.52-1.93l1.93,0.52L242.55,99.86z M236.76,98.29l-1.93-0.52l0.52-1.93 l1.93,0.52L236.76,98.29z M230.96,96.72l-1.93-0.52l0.52-1.93l1.93,0.52L230.96,96.72z M225.17,95.15l-1.93-0.52l0.52-1.93 l1.93,0.52L225.17,95.15z M219.38,93.58l-1.93-0.52l0.52-1.93l1.93,0.52L219.38,93.58z M213.59,92.01l-1.93-0.52l0.52-1.93 l1.93,0.52L213.59,92.01z M207.8,90.44l-1.93-0.52l0.52-1.93l1.93,0.52L207.8,90.44z" class="st134"/></g><g><path d="M283.23,204.07c-0.71-2.92-3.51-7.09-10.67-6.85l-2.86,0.2l-0.13-0.1l-1.61,0.22l-64.5,4.42 c-5.56,0-10.38,3.51-11.7,8.53l-12.37,52.59h4.2l12.14-51.69c0.68-2.57,2.4-3.92,4.78-4.27c9.35,0,19.35,0.5,25.69,0.84 c-1.15,1.92-2.01,4.42-2.44,7.81l-1.44,34.09h4.08l1.42-33.72c0.42-3.71,1.69-6.18,3.29-7.92c0.19,0.01,0.38,0.02,0.54,0.02 c0.09,0,0.17-0.01,0.26-0.01c4.72,0.83,8.86,2.58,9.85,8.08l6.08,55.24h4.09l-5.68-55.27c-0.56-4.82-3.55-8.46-8.38-10.44 l35.27-4.9c2.82-0.13,5.28,1.32,6.2,4.22l16.2,52.63l3.46-1.79L283.23,204.07z" class="st57"/><radialGradient id="SVGID_2_" cx="193.225" cy="121.496" r="48.906" gradientUnits="userSpaceOnUse"><stop offset=".061" style="stop-color:#1ba6c5"/><stop offset=".887" style="stop-color:#57cacf"/></radialGradient><path d="M219.75,199.04c0,0-18,4.55-27.08,4.55c-9.07,0-13.58-8.06-15.92-20.62c-2.34-12.56-6.86-50.42-4.39-61.4 c1.76-7.82,7.02-10.89,15.8-11.16c5.26-0.17,16.97-0.56,27.8,1.12c10.83,1.67,18.21,17.17,24.87,27.35 c19.9,30.42,32.89,50.11,32.89,50.11L219.75,199.04z" class="st22"/><linearGradient id="SVGID_3_" x1="233.742" x2="233.742" y1="204.861" y2="177.87" gradientUnits="userSpaceOnUse"><stop offset=".061" style="stop-color:#1ba6c5"/><stop offset=".887" style="stop-color:#57cacf"/></linearGradient><path d="M275.32,197.41l-56.83,7.45c-4.34,0-34.18-4.58-34.18-8.9v-3.89c0-4.32,15.94-7.06,20.29-7.06l70.73-7.14 c4.34,0,7.86,3.5,7.86,7.82v3.89C283.18,193.91,279.66,197.41,275.32,197.41z" class="st23"/></g><g><path d="M300.25,157.98c-0.64,0.42-15.9,10.33-30.5,5.2c-8.44-2.96-14.74-10.16-18.73-21.4l7.71-3.09 c3.09,8.69,7.68,14.16,13.65,16.27c10.89,3.85,23.43-4.22,23.55-4.3L300.25,157.98z" class="st19"/></g><g><g><linearGradient id="SVGID_4_" x1="8302.411" x2="8302.411" y1="-1232.637" y2="-1198.662" gradientTransform="matrix(-0.9997 0.0229 0.0229 0.9997 8573.2529 1212.907)" gradientUnits="userSpaceOnUse"><stop offset=".252" style="stop-color:#522cd5"/><stop offset=".556" style="stop-color:#8a6fe8"/></linearGradient><path d="M249.59,204.63c1.35-6.83,2.91-20.91-2.36-33.93l-8.05,2.84c4.78,11.81,3,24.21,1.84,29.56 C240.93,203.54,245.21,204.76,249.59,204.63z" class="st24"/></g><path d="M241.04,203.03l6.74,1.22l-0.08,35.38l-13.52-2.46c-1.03-0.19-1.66-1.12-1.41-2.09L241.04,203.03z" class="st21"/><linearGradient id="SVGID_5_" x1="8660.135" x2="8638.015" y1="-502.122" y2="-463.81" gradientTransform="matrix(-0.9839 -0.1785 -0.2473 0.9714 8641.9189 2236.3948)" gradientUnits="userSpaceOnUse"><stop offset="0" style="stop-color:#522cd5"/><stop offset=".44" style="stop-color:#8a6fe8"/></linearGradient><path d="M263.78,233.31c1,1.09,0.75,2.36,0.41,3.68l-1.04,4.05c-0.19,0.72-0.97,1.2-1.75,1.06l-14.09-2.56 c-0.88-0.16-1.41-0.95-1.2-1.78l0.89-4.23c0.39-1.52-0.05-2.19-1.03-3.88c-1.69-2.89-5.54-17.62-3.29-26.33l6.94,1.26 C249.08,209.91,254.19,222.89,263.78,233.31z" class="st25"/><radialGradient id="SVGID_6_" cx="867.307" cy="-975.949" r="13.152" gradientTransform="matrix(1.129 0.2051 -0.1944 1.0727 -912.2836 1094.8253)" gradientUnits="userSpaceOnUse"><stop offset=".034" style="stop-color:#522cd5"/><stop offset=".996" style="stop-color:#8a6fe8"/></radialGradient><path d="M264.18,236.99c0.24-0.92,0.42-1.82,0.18-2.64l-17.58-3.19c0.36,0.77,0.45,1.4,0.2,2.38l-0.89,4.23 c-0.21,0.82,0.33,1.62,1.2,1.77l14.09,2.56c0.77,0.14,1.56-0.34,1.75-1.06L264.18,236.99z" class="st28"/></g><g><linearGradient id="SVGID_7_" x1="-2204.389" x2="-2204.389" y1="883.068" y2="914.639" gradientTransform="matrix(0.942 -0.3356 0.3356 0.942 2006.4319 -1397.9059)" gradientUnits="userSpaceOnUse"><stop offset=".252" style="stop-color:#522cd5"/><stop offset=".556" style="stop-color:#8a6fe8"/></linearGradient><path d="M223.29,200.98c6.97-7.64,11.26-12.06,11.06-14.25c-0.05-0.55-0.73-1.65-3.71-3.8 c-2.52-1.82-5.45-3.88-5.45-3.89l5.25-6.73c0,0,2.96,2.09,5.51,3.93c3.4,2.45,6.61,5.3,6.98,9.5c0.52,5.77-2.4,8.87-12.68,20.14 L223.29,200.98z" class="st30"/></g><radialGradient id="SVGID_8_" cx="7835.458" cy="-105.461" r="40.444" gradientTransform="matrix(-1.1334 0.1703 0.1792 1.0768 9137.7275 -1100.946)" gradientUnits="userSpaceOnUse"><stop offset=".474" style="stop-color:#a08be8"/><stop offset=".862" style="stop-color:#8065e0"/></radialGradient><path d="M273.97,143.53c1.2-11.55-2.24-20.11-2.24-20.11l2.75-0.41l0.06-0.06c-7.32-19.76-28.66-32.37-51.22-28.98 c-25.42,3.82-42.77,26.49-38.75,50.64c4.02,24.15,27.89,40.63,53.31,36.81c20.06-3.01,35.09-17.77,38.56-35.72 C276.5,144.95,276.27,143.65,273.97,143.53z" class="st31"/><path d="M274.06,153.86l-79.48,11.94c2.26,2.61,4.82,4.95,7.62,7l66.87-10.05C271.09,159.98,272.76,157,274.06,153.86 z" class="st26"/><g><polygon points="251.28 167.86 266.2 165.62 264.11 153.09 249.2 155.33" class="st27"/><g><path d="M253.11,162.8c-0.1,0.01-0.19,0-0.27-0.06c-0.08-0.05-0.13-0.13-0.14-0.21c-0.01-0.09,0.01-0.17,0.07-0.25 c0.06-0.07,0.14-0.12,0.24-0.13c0.1-0.01,0.19,0,0.27,0.06c0.08,0.05,0.13,0.13,0.14,0.22c0.01,0.09-0.01,0.17-0.07,0.25 C253.29,162.74,253.21,162.78,253.11,162.8z" class="st6"/><path d="M257.07,162.16l-0.65,0.1l-2.12-2.3c-0.05-0.06-0.1-0.12-0.14-0.18l-0.01,0c0.03,0.07,0.06,0.23,0.1,0.47 l0.37,2.27l-0.57,0.08l-0.57-3.47l0.69-0.1l2.05,2.24c0.09,0.09,0.14,0.16,0.17,0.19l0.01,0c-0.03-0.09-0.07-0.24-0.1-0.46 l-0.37-2.23l0.57-0.08L257.07,162.16z" class="st6"/><path d="M259.85,161.75l-2,0.3l-0.57-3.47l1.92-0.28l0.08,0.49l-1.33,0.2l0.16,0.98l1.22-0.18l0.08,0.49l-1.22,0.18 l0.17,1.02l1.41-0.21L259.85,161.75z" class="st6"/><path d="M262.2,158.35l-1.02,0.15l0.49,2.98l-0.59,0.09l-0.49-2.98l-1.02,0.15l-0.08-0.49l2.63-0.39L262.2,158.35z" class="st6"/></g></g><radialGradient id="SVGID_9_" cx="7808.018" cy="-103.956" r="41.912" gradientTransform="matrix(-1.1334 0.1703 0.1792 1.0768 9137.7275 -1100.946)" gradientUnits="userSpaceOnUse"><stop offset=".093" style="stop-color:#e1dfdd"/><stop offset=".657" style="stop-color:#fff"/></radialGradient><path d="M274.07,143.51c1.18-11.41-2.15-19.89-2.24-20.1l-47.75,7.17c0,0-3.06,0.16-2.62,2.77 c0.43,2.61,1.78,9.97,3.13,18.13c0.28,1.68,1.86,2.27,3,2.1C227.59,153.58,273.17,145.5,274.07,143.51z" class="st32"/><path d="M245.58,147.81c0,0,6.42-6.63,7.69-7.86c1.26-1.24,2.51-1.48,4-0.6c1.49,0.88,9.76,5.24,9.76,5.24 L245.58,147.81z" class="st29"/><path d="M276.34,146.28c0,0,0.98-2.59-2.27-2.77c0-0.01-46.96,7.02-46.96,7.02c-1.09,0.16-2.6-0.24-2.89-1.23 c0.12,0.72,0.24,1.45,0.37,2.19c0.25,1.52,1.58,2.15,2.67,2.12c0.11,0,0.22-0.01,0.33-0.03l3.21-0.48L276.34,146.28z" class="st27"/><g><ellipse cx="236.93" cy="138.88" class="st27" rx="3.64" ry="5.83" transform="matrix(0.9817 -0.1904 0.1904 0.9817 -22.1107 47.6567)"/><path d="M236.42,136.01c0.62-0.81,1.56-1.27,2.53-1.33c0.73,0.92,1.3,2.17,1.57,3.61c0.16,0.9,0.19,1.76,0.09,2.56 c-1.09,0.48-2.4,0.4-3.44-0.32C235.65,139.48,235.31,137.45,236.42,136.01z" class="st5"/></g><path d="M301.35,142.9l-11.04,6.98c-1.82,1.15-2.45,3.55-1.41,5.36l0.19,0.32c1.04,1.81,3.37,2.34,5.19,1.19 l11.04-6.98c1.82-1.15,2.45-3.55,1.41-5.36l-0.19-0.32C305.49,142.28,303.17,141.75,301.35,142.9z" class="st19"/><path d="M295.65,164.93l7.87,2.27c2.1,0.59,4.28-0.73,4.86-2.94c0.58-2.22-0.65-4.49-2.75-5.08l-8.07-2.33 L295.65,164.93z" class="st19"/><path d="M299.37,162.38l11.16-1.89c2.15-0.37,3.63-2.51,3.29-4.77c-0.33-2.26-2.35-3.79-4.51-3.42l-8.3,1.38 L299.37,162.38z" class="st19"/><path d="M298.71,159.92l10.49-4.5c2.03-0.87,3.02-3.29,2.21-5.41c-0.8-2.12-3.1-3.14-5.13-2.28l-10.68,4.58 L298.71,159.92z" class="st19"/><radialGradient id="SVGID_10_" cx="-10339.452" cy="-2105.004" r="7.579" gradientTransform="matrix(0.4401 -1.0537 0.9979 0.4531 6942.8975 -9785.7432)" gradientUnits="userSpaceOnUse"><stop offset="0" style="stop-color:#8065e0"/><stop offset="1" style="stop-color:#512bd4"/></radialGradient><path d="M288.38,151.67c2.6-3.97,7.75-4.99,11.5-2.29s4.68,8.11,2.07,12.08c-2.6,3.97-7.75,4.99-11.5,2.29 C286.71,161.04,285.78,155.63,288.38,151.67z" class="st33"/><g><path d="M218.48,92.15l8.59-1.32l-3.88-14.59l-6.17,0.94L218.48,92.15z" class="st19"/><path d="M222.63,82.32c-3,1.25-6.51-0.02-7.85-2.85c-1.33-2.82,0.01-6.11,3.02-7.36c3-1.25,6.51,0.02,7.85,2.85 C226.98,77.78,225.63,81.07,222.63,82.32z" class="st26"/><path d="M216.08,97.72c-0.38,0.06-0.76-0.21-0.77-0.57c-0.22-3.9,2.71-7.41,6.91-8.06c4.2-0.64,8.18,1.8,9.31,5.56 c0.11,0.36-0.15,0.72-0.53,0.77L216.08,97.72z" class="st21"/></g><g><path d="M223.37,200.94l5.42,3.81l-8.83,37.91l-19.3-13.53c-0.83-0.58-0.94-1.68-0.25-2.46L223.37,200.94z" class="st21"/><linearGradient id="SVGID_11_" x1="6407.156" x2="6384.78" y1="-3030.597" y2="-2991.84" gradientTransform="matrix(-0.804 -0.5946 -0.6508 0.7625 3408.6511 6323.0908)" gradientUnits="userSpaceOnUse"><stop offset="0" style="stop-color:#522cd5"/><stop offset=".44" style="stop-color:#8a6fe8"/></linearGradient><path d="M230.77,238.6c0.5,1.35-0.41,2.65-1.35,3.71l-2.9,3.25c-0.52,0.58-1.45,0.7-2.07,0.26l-6.82-4.79 c-0.7-0.5-0.8-1.43-0.21-2.09l2.84-3.48c1.09-1.22,1.6-2.12,0.96-3.93c-3.79-10.69-2.44-20.62,4.08-29.23l4.96,3.49 C227.21,210.4,224.25,220.86,230.77,238.6z" class="st34"/><radialGradient id="SVGID_12_" cx="3310.665" cy="-3257.665" r="12.186" gradientTransform="matrix(0.9066 0.6374 -0.693 0.8925 -5028.6055 1027.9598)" gradientUnits="userSpaceOnUse"><stop offset=".034" style="stop-color:#522cd5"/><stop offset=".996" style="stop-color:#8a6fe8"/></radialGradient><path d="M224.44,245.82c0.62,0.44,1.55,0.32,2.07-0.26l2.9-3.25c0.62-0.7,1.22-1.49,1.42-2.34l-9.38-6.59 c-0.12,0.75-0.56,1.36-1.2,2.08l-2.84,3.48c-0.59,0.66-0.49,1.59,0.21,2.09L224.44,245.82z" class="st35"/></g><g><ellipse cx="265.94" cy="134.53" class="st27" rx="3.64" ry="5.83" transform="matrix(0.9817 -0.1904 0.1904 0.9817 -20.7515 53.1007)"/><path d="M265.43,131.66c0.62-0.81,1.56-1.27,2.53-1.33c0.73,0.92,1.3,2.17,1.57,3.61c0.16,0.9,0.19,1.76,0.09,2.56 c-1.09,0.48-2.4,0.4-3.44-0.32C264.66,135.13,264.32,133.1,265.43,131.66z" class="st5"/></g><g><linearGradient id="SVGID_13_" x1="-3271.155" x2="-3271.155" y1="-2535.948" y2="-2499.035" gradientTransform="matrix(0.6857 -0.7279 0.7279 0.6857 4279.4697 -486.5548)" gradientUnits="userSpaceOnUse"><stop offset=".249" style="stop-color:#967fe6"/><stop offset=".675" style="stop-color:#8a6fe8"/></linearGradient><path d="M195.01,176.3c-3.68-4.91-3.99-15.01,1.16-26.35c0.96-2.12,9,0.94,8.04,3.06 c-5.33,11.79-3.15,17.77-2.46,18.51c1.84,1.99,7.37,1.9,13.74-0.22c2.16-0.72,4.56,0.53,5.35,2.78c0.79,2.26-0.32,4.67-2.48,5.38 c-5.85,1.94-16.56,4.25-22.52-2.17C195.54,176.98,195.27,176.65,195.01,176.3z" class="st49"/></g><path d="M228.72,163.59l-11.91,3.88c-1.96,0.64-3,2.83-2.32,4.9l0.12,0.37c0.68,2.06,2.83,3.22,4.79,2.58l11.91-3.88 c1.96-0.64,3-2.83,2.32-4.9l-0.12-0.37C232.83,164.1,230.68,162.95,228.72,163.59z" class="st19"/><path d="M218.65,183.4l7.37,4.41c1.97,1.16,4.43,0.56,5.5-1.35c1.07-1.91,0.33-4.4-1.64-5.56l-7.55-4.52L218.65,183.4 z" class="st19"/><path d="M221.56,182.5l11.56,1.47c2.23,0.28,4.18-1.3,4.34-3.52c0.16-2.22-1.52-4.24-3.75-4.51l-8.6-1.12 L221.56,182.5z" class="st19"/><path d="M221.71,178.86l11.47-1.18c2.22-0.22,3.74-2.21,3.4-4.43c-0.34-2.22-2.41-3.84-4.62-3.62l-11.68,1.19 L221.71,178.86z" class="st19"/><radialGradient id="SVGID_14_" cx="434.708" cy="-9524.383" r="7.578" gradientTransform="matrix(-0.0891 1.108 -1.1172 -0.1457 -10378.1865 -1693.4714)" gradientUnits="userSpaceOnUse"><stop offset="0" style="stop-color:#8065e0"/><stop offset="1" style="stop-color:#512bd4"/></radialGradient><path d="M214.3,168.86c3.47-2.96,8.84-2.43,12,1.19s2.89,8.95-0.58,11.92c-3.47,2.96-8.84,2.43-12-1.19 C210.56,177.16,210.82,171.82,214.3,168.86z" class="st50"/><radialGradient id="SVGID_15_" cx="-1227.662" cy="-87.223" r="7.459" gradientTransform="matrix(1.1334 -0.1703 0.1792 1.0768 1606.4973 30.3501)" gradientUnits="userSpaceOnUse"><stop offset="0" style="stop-color:#8065e0"/><stop offset="1" style="stop-color:#512bd4"/></radialGradient><ellipse cx="201.45" cy="147.92" class="st51" rx="8.56" ry="8.13"/><path d="M171.84,125.29c-1.13,14.09,2.78,46.29,4.9,57.69c2.34,12.56,7.02,20.93,16.1,20.93l25.56,0.99 c1.29,0,1.99-1.51,1.14-2.49C207.25,188.25,178.53,151.63,171.84,125.29z" class="st461"/><path d="M385.78,262.32c-1.09-0.25-98.34-0.25-99.44,0.01c-2.3,0.54-2.7,2.32-0.86,3.07 c0.02,0.01,0.04,0.01,0.06,0.02c3.83,1.73,25.01,3.06,50.56,3.06c25.4,0,46.47-1.31,50.49-3.03c0.01,0,0.01,0,0.02,0 c0.03-0.01,0.05-0.02,0.08-0.03c0.01,0,0.01-0.01,0.02-0.01C388.54,264.61,388.04,262.84,385.78,262.32z" class="st461"/><linearGradient id="SVGID_16_" x1="336.103" x2="336.103" y1="162.342" y2="266.801" gradientUnits="userSpaceOnUse"><stop offset=".061" style="stop-color:#1ba6c5"/><stop offset=".252" style="stop-color:#57cacf"/></linearGradient><path d="M353.94,259.77c-7.02-3.78-14.93-20.39-14.93-38.61c0-15.52,0.52-48.44,27.98-52.73l-28.4-6.09l-1.64,0.2 l-30.04,5.9c27.46,4.28,27.98,37.21,27.98,52.73c0,18.05-9.77,34.8-16.8,38.62c-19.37,0.52-33.16,1.84-33.16,3.39 c0,2,22.91,3.63,51.18,3.63c28.26,0,51.18-1.62,51.18-3.63C387.28,261.62,373.41,260.29,353.94,259.77z" class="st52"/><path d="M421.61,162.35c-1.82-0.32-168.25-0.2-169.55,0.09c-2.82,0.64-3.94,2.88,0.71,3.76c0,0,0.01,0,0.01,0 c8.89,1.9,43.23,3.32,84.24,3.32c42.06,0,77.1-1.49,84.86-3.46c0,0,0.01,0,0.01,0C426.12,165.13,425.36,163.02,421.61,162.35z" class="st235"/><ellipse cx="337.02" cy="163.25" class="st184" rx="86.48" ry="4.29"/><path d="M266.54,159.14l49.93-4.36c0,0-3.68,6.99-4.05,6.99C312.06,161.78,266.54,159.14,266.54,159.14z" class="st57"/><path d="M344.97,162.46h-75.11c-1.83,0-3.31-1.48-3.31-3.31l0,0h81.74l0,0C348.28,160.97,346.8,162.46,344.97,162.46z" class="st58"/><path d="M308.78,162.46h-38.92c-1.83,0-3.31-1.48-3.31-3.31l0,0h81.74h-36.19 C312.09,160.97,310.6,162.46,308.78,162.46z" class="st59"/><path d="M360.7,100.1l-37.7,0.41c-0.89,0.01-1.65,0.64-1.82,1.51l-11.57,57.12h38.65l14.7-56.16 C363.33,101.52,362.21,100.09,360.7,100.1z" class="st40"/><path d="M360.7,100.1l-35.25,0.41c-0.89,0.01-1.65,0.64-1.82,1.51l-11.57,57.12h36.19l14.7-56.16 C363.33,101.52,362.21,100.09,360.7,100.1z" class="st199"/><g><polygon points="328.97 166.51 318.67 166.51 316.8 143.33 330.85 143.33" class="st6"/><polygon points="330.48 147.93 330.85 143.33 316.8 143.33 317.17 147.93" class="st48"/><path d="M331.61,144.83h-15.86c-0.54,0-0.95-0.5-0.84-1.03l0.64-2.99c0.08-0.39,0.43-0.68,0.84-0.68h14.57 c0.4,0,0.75,0.28,0.84,0.68l0.64,2.99C332.56,144.33,332.15,144.83,331.61,144.83z" class="st58"/></g><path d="M246,36.18c-0.94,0.31-1.87,0.68-2.78,1.11c-1.25,0.6-2.4,1.29-3.47,2.07l1.92,4.13 c-1.06,0.89-1.99,1.89-2.77,2.97l-5.09-0.51c-1.15,2.02-1.92,4.2-2.28,6.44l4.51,1.89c-0.1,1.49,0.04,3.01,0.43,4.49 c-1.1,0.72-2.95,1.88-4.13,2.62c0.3,0.85,0.67,1.69,1.1,2.51c0.6,1.13,1.32,2.18,2.11,3.14l4.61-1.8c1,1.03,2.15,1.9,3.39,2.62 l-0.81,4.64c2.17,0.99,4.53,1.62,6.96,1.86l2.37-4.27c1.37,0,2.74-0.16,4.11-0.48l2.73,3.77c0.99-0.32,1.97-0.7,2.93-1.16 c1.31-0.63,2.52-1.36,3.63-2.18l-1.98-4.11c1.09-0.93,2.04-1.97,2.83-3.1l4.89,0.79c1.22-2.13,2.02-4.44,2.36-6.81 c-1.43-0.49-3.43-1.19-4.56-1.61c0.09-1.36-0.02-2.74-0.34-4.09l4.2-2.51c-0.33-1.01-0.75-2.01-1.27-2.99 c-0.64-1.2-1.4-2.31-2.26-3.33l-4.42,2.02c-1.05-1.09-2.26-2-3.58-2.74l1.08-4.5c-2.1-0.97-4.36-1.6-6.71-1.87l-1.98,4.25 c-1.66-0.07-3.34,0.09-5.01,0.5L246,36.18z M260.93,50.72c2.27,4.25,0.34,9.5-4.31,11.73c-4.64,2.23-10.25,0.59-12.51-3.66 c-2.27-4.25-0.34-9.5,4.31-11.73C253.07,44.83,258.67,46.47,260.93,50.72z" class="st41"/><g><path d="M498.17,102.14h-41.82c-1.62,0-2.94-1.32-2.94-2.94V69.1c0-1.62,1.32-2.94,2.94-2.94h41.82 c1.62,0,2.94,1.32,2.94,2.94v30.1C501.11,100.83,499.79,102.14,498.17,102.14z" class="st102"/><path d="M453.41,94.78v4.78c0,1.43,1.16,2.58,2.58,2.58h42.5c1.44,0,2.62-1.17,2.62-2.62v-4.74H453.41z" class="st243"/><path d="M471.49,86.66V73.83c0-1.11,1.2-1.8,2.16-1.25L484.77,79c0.96,0.55,0.96,1.94,0,2.49l-11.13,6.42 C472.69,88.46,471.49,87.77,471.49,86.66z" class="st6"/></g><g><g><path d="M200.65,89.88h-47.46c-1.63,0-2.95-1.32-2.95-2.95v-31.2c0-1.63,1.32-2.95,2.95-2.95h47.46 c1.63,0,2.95,1.32,2.95,2.95v31.2C203.6,88.56,202.28,89.88,200.65,89.88z" class="st243"/><path d="M203.6,59.9v-5.1c0-1.11-0.9-2.01-2.01-2.01h-49.33c-1.11,0-2.01,0.9-2.01,2.01v5.1H203.6z" class="st102"/><rect width="4.19" height="2.14" x="154.82" y="55.71" class="st126"/><rect width="4.19" height="2.14" x="161.65" y="55.71" class="st126"/></g><g><path d="M171.2,80.11l-12.17-5.35v-1.24l12.17-6.07v1.89l-9.91,4.7l9.91,4.16V80.11z" class="st6"/><path d="M181.81,64.66l-6.9,18.52h-2.1l6.9-18.52H181.81z" class="st6"/><path d="M183.39,78.2l9.92-4.13l-9.92-4.73v-1.89l12.17,6.07v1.24l-12.17,5.35V78.2z" class="st6"/></g></g><g><polygon points="351.22 77.84 313.92 77.84 313.92 31.9 338.45 31.9 351.22 44.11" class="st182"/><polygon points="338.45 31.9 338.45 44.13 351.22 44.13 351.22 44.11 338.45 31.9" class="st184"/><g><g><path d="M343.23,50.13h-21.85c-0.38,0-0.68-0.31-0.68-0.68s0.31-0.68,0.68-0.68h21.85c0.38,0,0.68,0.31,0.68,0.68 S343.61,50.13,343.23,50.13z" class="st349"/></g><g><path d="M337.77,55.6h-16.39c-0.38,0-0.68-0.31-0.68-0.68c0-0.38,0.31-0.68,0.68-0.68h16.39 c0.38,0,0.68,0.31,0.68,0.68C338.45,55.29,338.15,55.6,337.77,55.6z" class="st349"/></g><g><path d="M343.23,61.06h-21.85c-0.38,0-0.68-0.31-0.68-0.68c0-0.38,0.31-0.68,0.68-0.68h21.85 c0.38,0,0.68,0.31,0.68,0.68C343.91,60.75,343.61,61.06,343.23,61.06z" class="st349"/></g><g><path d="M337.77,66.52h-16.39c-0.38,0-0.68-0.31-0.68-0.68c0-0.38,0.31-0.68,0.68-0.68h16.39 c0.38,0,0.68,0.31,0.68,0.68C338.45,66.21,338.15,66.52,337.77,66.52z" class="st349"/></g></g></g><g><g><path d="M439.71,38.14l-25.14,5.9l0.08,26.39c-0.63-0.58-1.52-0.31-2.45-0.31c-0.9,0-1.64-0.93-2.27-0.38 l-0.06-25.7l-25.14-5.9l0.03,30.94l24.1,4.38c0.81,1.3,1.8,1.74,3.33,1.74c1.53,0,2.57-0.5,3.33-1.73l24.15-4.31L439.71,38.14z" class="st344"/><path d="M435.92,35.4c0,0-18.16,3.24-20.5,3.99c-2.34,0.74-3.3,2.33-3.24,5.34c0.07,3.02,0,25.61,0,25.61 l24.14-4.7L435.92,35.4z" class="st139"/></g><path d="M388.71,35.4c0,0,17.98,3.24,20.32,3.99c2.34,0.74,3.3,2.33,3.24,5.34c-0.07,3.02-0.09,25.61-0.09,25.61 l-24.05-4.64L388.71,35.4z" class="st93"/><g><g><path d="M407.76,44.94c-0.03,0-0.06,0-0.09-0.01l-14.59-2.83c-0.24-0.05-0.4-0.28-0.36-0.53 c0.05-0.25,0.29-0.4,0.53-0.36l14.59,2.83c0.24,0.05,0.4,0.28,0.36,0.53C408.16,44.79,407.97,44.94,407.76,44.94z" class="st40"/></g><g><path d="M407.76,49.2c-0.03,0-0.06,0-0.09-0.01l-14.6-2.83c-0.24-0.05-0.4-0.28-0.36-0.53 c0.05-0.25,0.29-0.4,0.53-0.36l14.6,2.83c0.24,0.05,0.4,0.28,0.36,0.53C408.16,49.05,407.97,49.2,407.76,49.2z" class="st40"/></g><g><path d="M407.76,53.45c-0.03,0-0.06,0-0.09-0.01l-14.6-2.83c-0.24-0.05-0.4-0.28-0.36-0.53 c0.05-0.25,0.29-0.41,0.53-0.36l14.6,2.83c0.24,0.05,0.4,0.28,0.36,0.53C408.16,53.3,407.97,53.45,407.76,53.45z" class="st40"/></g><g><path d="M407.76,57.7c-0.03,0-0.06,0-0.09-0.01l-14.59-2.83c-0.24-0.05-0.4-0.28-0.36-0.53 c0.05-0.25,0.29-0.41,0.53-0.36l14.59,2.83c0.24,0.05,0.4,0.28,0.36,0.53C408.16,57.55,407.97,57.7,407.76,57.7z" class="st40"/></g></g><g><g><path d="M416.62,44.94c0.03,0,0.06,0,0.09-0.01l14.59-2.83c0.24-0.05,0.4-0.28,0.36-0.53 c-0.05-0.25-0.29-0.4-0.53-0.36l-14.59,2.83c-0.24,0.05-0.4,0.28-0.36,0.53C416.22,44.79,416.41,44.94,416.62,44.94z" class="st40"/></g><g><path d="M416.62,49.2c0.03,0,0.06,0,0.09-0.01l14.6-2.83c0.24-0.05,0.4-0.28,0.36-0.53 c-0.05-0.25-0.29-0.4-0.53-0.36l-14.6,2.83c-0.24,0.05-0.4,0.28-0.36,0.53C416.22,49.05,416.41,49.2,416.62,49.2z" class="st40"/></g><g><path d="M416.62,53.45c0.03,0,0.06,0,0.09-0.01l14.6-2.83c0.24-0.05,0.4-0.28,0.36-0.53 c-0.05-0.25-0.29-0.41-0.53-0.36l-14.6,2.83c-0.24,0.05-0.4,0.28-0.36,0.53C416.22,53.3,416.41,53.45,416.62,53.45z" class="st40"/></g><g><path d="M416.62,57.7c0.03,0,0.06,0,0.09-0.01l14.59-2.83c0.24-0.05,0.4-0.28,0.36-0.53 c-0.05-0.25-0.29-0.41-0.53-0.36l-14.59,2.83c-0.24,0.05-0.4,0.28-0.36,0.53C416.22,57.55,416.41,57.7,416.62,57.7z" class="st40"/></g></g><path d="M410.5,70.92c0.54-0.33,1.16-0.52,1.84-0.52c0.62,0,1.21,0.17,1.72,0.45l22.86-3.67l0.21-28.58l-1.28-3.21 l-0.13,29.67c0,0-18.76,3.12-20.44,3.5c-1.68,0.39-3.06,1.74-3.06,1.74s-0.66-1.13-2.77-1.67c-2.11-0.54-20.73-3.71-20.73-3.71 l0.05-29.47l-1.32,3.36l0.08,28.13L410.5,70.92z" class="st140"/></g></g></svg>