<svg xmlns="http://www.w3.org/2000/svg" xmlns:xlink="http://www.w3.org/1999/xlink" id="Layer_1" x="0" y="0" version="1.1" viewBox="0 0 636 300" xml:space="preserve" style="enable-background:new 0 0 636 300"><style type="text/css">.st2{fill:#f7b548}.st6{fill:#fff}.st21{fill:#522cd5}.st37{fill:#0064da}.st38{fill:#3e8eed}.st40{fill:#b3afab}.st41{fill:#a7a4a0}.st42{fill:#957ee6}.st43{fill:#e5f0fc}.st44{fill:#1daccc}.st45{fill:#76aff2}.st46{fill:#fccf84}.st47{fill:#8dbcf4}</style><g><path d="M362,72.06l-137.47,62.44l105.22,48.79l172.21-67.99L362,72.06z M228.97,134.51l133.15-60.48l134.26,41.47 l-166.58,65.77L228.97,134.51z" class="st40"/><polygon points="490.21 117.09 490.07 115.24 347.82 125.83 363.2 76.94 361.43 76.38 345.83 125.98 236.75 134.09 236.89 135.94 345.23 127.88 329.67 177.35 331.44 177.9 347.22 127.73" class="st40"/><path d="M313.21,164.47c-2.02,0.66-4.02,1.45-5.99,2.4c-2.68,1.29-5.17,2.79-7.47,4.45l4.14,8.89 c-2.29,1.92-4.29,4.07-5.96,6.39l-10.95-1.09c-2.47,4.35-4.13,9.04-4.91,13.87l9.71,4.06c-0.21,3.22,0.09,6.47,0.92,9.67 c-2.37,1.55-6.35,4.06-8.89,5.64c0.65,1.83,1.43,3.63,2.38,5.4c1.3,2.44,2.83,4.69,4.55,6.77l9.92-3.87 c2.16,2.21,4.62,4.1,7.3,5.63l-1.75,9.98c4.68,2.13,9.75,3.48,14.98,3.99l5.1-9.2c2.94,0,5.91-0.34,8.85-1.04l5.88,8.12 c2.13-0.68,4.23-1.51,6.3-2.5c2.82-1.35,5.43-2.93,7.82-4.7l-4.26-8.84c2.35-2,4.39-4.25,6.08-6.68l10.53,1.7 c2.62-4.58,4.35-9.55,5.09-14.65c-3.07-1.06-7.39-2.56-9.81-3.46c0.18-2.93-0.05-5.89-0.73-8.81l9.04-5.41 c-0.71-2.18-1.61-4.33-2.73-6.43c-1.38-2.59-3.02-4.98-4.86-7.16l-9.52,4.36c-2.27-2.34-4.87-4.32-7.71-5.9l2.32-9.69 c-4.51-2.08-9.39-3.44-14.44-4.02l-4.26,9.14c-3.57-0.15-7.2,0.2-10.78,1.08L313.21,164.47z M345.37,195.78 c4.88,9.15,0.73,20.45-9.27,25.25c-10,4.79-22.06,1.26-26.94-7.88c-4.88-9.15-0.73-20.45,9.27-25.25 C328.43,183.1,340.49,186.63,345.37,195.78z" class="st41"/><path d="M387.63,151.49l-11.47,11.47l-8.66-8.66l11.43-11.43c-2.02-0.87-4.24-1.35-6.58-1.35 c-9.22,0-16.7,7.48-16.7,16.7c0,2.3,0.47,4.5,1.31,6.5c-7.69,6.57-30.99,26.55-37.53,33.09c-7.87,7.87,5.03,22.74,14.87,12.46 c7.71-8.06,24.83-28.2,31.87-36.53c1.91,0.76,4,1.19,6.18,1.19c9.22,0,16.7-7.48,16.7-16.7 C389.05,155.82,388.54,153.55,387.63,151.49z M326.86,208.87c-2.73,0-4.95-2.22-4.95-4.95s2.22-4.95,4.95-4.95 c2.73,0,4.95,2.22,4.95,4.95S329.59,208.87,326.86,208.87z" class="st2"/><g><path d="M470.64,162.12c2.02-15.96-3.62-30.51-11.22-49.37s2.12-55.79,44.83-47.61 c42.27,8.09,41.95,46.46,22.11,67.16c-15.61,16.29-21.24,21.03-24.19,37.8S468.05,182.55,470.64,162.12z" class="st2"/><path d="M526.55,103.49c-0.37-0.51-1.1-0.66-1.64-0.33c-1.95,1.19-7.87,2.53-15.56,2.48l2.02-6.97 c0.17-0.58-0.2-1.2-0.83-1.37c-0.63-0.18-1.27,0.16-1.44,0.74l-2.18,7.55c-6.18-0.27-13.28-1.47-20.3-4.29l0.46-6.82 c0.04-0.61-0.45-1.15-1.1-1.2c-0.65-0.06-1.21,0.39-1.25,1l-0.41,6.04c-3.77-1.71-7.49-3.91-11.01-6.73 c-0.5-0.4-1.24-0.36-1.66,0.1c-0.41,0.46-0.34,1.16,0.16,1.56c3.94,3.15,8.12,5.58,12.35,7.44l-4.44,65.13 c-0.03,0.48,0.27,0.93,0.75,1.12c0.05,0.02,0.1,0.04,0.15,0.05l8.59,2.2c0.62,0.16,1.25-0.17,1.42-0.75l18.09-62.55 c8.46,0.13,15.11-1.38,17.54-2.87C526.78,104.68,526.92,104,526.55,103.49z M488.64,168.76l-6.51-1.67l4.32-63.47 c6.84,2.65,13.71,3.85,19.82,4.17L488.64,168.76z" class="st6"/><g><polygon points="470.05 181.57 472.13 189.44 489.85 194.06 495.61 188.68" class="st38"/><polygon points="502.17 170.1 470.64 162.12 465.68 183.67 498.67 191.94" class="st38"/><g><polygon points="499.79 184.95 500.03 183.5 467.59 175.36 467.26 176.79" class="st37"/><polygon points="469.14 168.63 501.16 176.41 501.39 174.95 469.47 167.2" class="st37"/></g></g></g><g><path d="M410.76,106.04l-94.43-0.52c-2.59-0.01-4.75-1.79-4.82-3.96l-2.02-60.32c-0.07-2.17,1.97-3.92,4.56-3.91 l94.43,0.52c2.59,0.01,4.75,1.79,4.82,3.96l2.02,60.32C415.39,104.3,413.35,106.05,410.76,106.04z" class="st42"/><path d="M413.59,50.74l-0.3-8.93c-0.07-2.17-2.23-3.94-4.82-3.96l-94.43-0.52c-2.59-0.01-4.63,1.73-4.56,3.91 l0.3,8.93L413.59,50.74z" class="st21"/><ellipse cx="322.37" cy="44.24" class="st42" rx="2.72" ry="3.26" transform="matrix(0.0961 -0.9954 0.9954 0.0961 247.3447 360.867)"/><ellipse cx="333.37" cy="44.3" class="st42" rx="2.72" ry="3.26" transform="matrix(0.0961 -0.9954 0.9954 0.0961 257.2222 371.8648)"/><ellipse cx="344.36" cy="44.36" class="st42" rx="2.72" ry="3.26" transform="matrix(0.0961 -0.9954 0.9954 0.0961 267.0996 382.8625)"/><g><path d="M353.46,86.47l-18.65-8.19v-1.9l18.65-9.3v2.89l-15.18,7.2l15.18,6.37V86.47z" class="st43"/><path d="M369.7,62.8l-10.58,28.37h-3.22l10.58-28.37H369.7z" class="st43"/><path d="M372.13,83.54l15.2-6.33l-15.2-7.24v-2.89l18.65,9.3v1.9l-18.65,8.19V83.54z" class="st43"/></g></g><g><rect width="16.22" height="60.39" x="216.93" y="110.65" class="st44"/><rect width="9.77" height="73.34" x="233.15" y="97.7" class="st37"/><rect width="5.65" height="59.93" x="248.07" y="111.04" class="st45" transform="matrix(0.9845 -0.1751 0.1751 0.9845 -20.8169 46.1202)"/></g><g><g><path d="M208.72,89.51l-42.68,23.65l13.7,47.94c-1.45-0.72-2.93,0.21-4.61,0.69c-1.64,0.46-3.47-0.85-4.32,0.48 l-13.31-46.69l-48.74,2.2l15.97,56.25l46.08-4.42c2.14,1.95,4.16,2.24,6.95,1.45c2.78-0.79,4.42-2.24,5.16-4.85l41.7-20.26 L208.72,89.51z" class="st37"/><path d="M200.41,86.47c0,0-31.35,15.23-35.23,17.79s-4.81,5.93-3.14,11.38s13.17,46.57,13.17,46.57l41.47-20.96 L200.41,86.47z" class="st2"/></g><path d="M114.57,110.75c0,0,34.36-3.34,39.01-3.2c4.65,0.15,7.2,2.53,8.63,8.05c1.43,5.52,13.01,46.62,13.01,46.62 l-46.12,3.93L114.57,110.75z" class="st46"/><g><g><path d="M154.11,118.31c-0.05,0.01-0.11,0.03-0.16,0.03l-27.99,2.36c-0.47,0.04-0.88-0.31-0.92-0.78 c-0.04-0.47,0.33-0.89,0.78-0.92l27.99-2.36c0.47-0.04,0.88,0.31,0.92,0.78C154.76,117.83,154.49,118.2,154.11,118.31z" class="st40"/></g><g><path d="M156.3,126.05c-0.05,0.01-0.11,0.03-0.16,0.03l-27.99,2.36c-0.47,0.04-0.88-0.31-0.92-0.78 c-0.04-0.47,0.33-0.88,0.78-0.92l27.99-2.36c0.47-0.04,0.88,0.31,0.92,0.78C156.95,125.57,156.68,125.94,156.3,126.05z" class="st40"/></g><g><path d="M158.48,133.78c-0.05,0.01-0.11,0.03-0.16,0.03l-27.99,2.36c-0.47,0.04-0.88-0.31-0.92-0.78 c-0.04-0.47,0.32-0.89,0.78-0.92l27.99-2.36c0.47-0.04,0.88,0.31,0.92,0.78C159.13,133.3,158.87,133.67,158.48,133.78z" class="st40"/></g><g><path d="M160.67,141.52c-0.05,0.01-0.11,0.03-0.16,0.03l-27.99,2.36c-0.47,0.04-0.88-0.31-0.92-0.78 c-0.04-0.47,0.32-0.89,0.78-0.92l27.99-2.36c0.47-0.04,0.88,0.31,0.92,0.78C161.32,141.04,161.05,141.41,160.67,141.52z" class="st40"/></g></g><g><g><path d="M170.23,113.75c0.05-0.01,0.1-0.03,0.15-0.06l25.08-12.65c0.42-0.21,0.59-0.72,0.38-1.14 c-0.21-0.42-0.74-0.58-1.14-0.38l-25.08,12.65c-0.42,0.21-0.59,0.72-0.38,1.14C169.43,113.69,169.85,113.86,170.23,113.75z" class="st40"/></g><g><path d="M172.42,121.49c0.05-0.01,0.1-0.03,0.15-0.06l25.08-12.65c0.42-0.21,0.59-0.72,0.38-1.14 c-0.21-0.42-0.74-0.58-1.14-0.38l-25.08,12.65c-0.42,0.21-0.59,0.72-0.38,1.14C171.61,121.42,172.03,121.6,172.42,121.49z" class="st40"/></g><g><path d="M174.6,129.22c0.05-0.01,0.1-0.03,0.15-0.06l25.08-12.65c0.42-0.21,0.59-0.72,0.38-1.14 c-0.21-0.42-0.74-0.59-1.14-0.38l-25.08,12.65c-0.42,0.21-0.59,0.72-0.38,1.14C173.8,129.16,174.22,129.33,174.6,129.22z" class="st40"/></g><g><path d="M176.79,136.96c0.05-0.01,0.1-0.03,0.15-0.06l25.08-12.65c0.42-0.21,0.59-0.72,0.38-1.14 c-0.21-0.42-0.74-0.59-1.14-0.38l-25.08,12.65c-0.42,0.21-0.59,0.72-0.38,1.14C175.99,136.89,176.41,137.07,176.79,136.96z" class="st40"/></g></g><path d="M172.46,164.13c0.81-0.87,1.85-1.55,3.08-1.89c1.14-0.32,2.28-0.31,3.35-0.06l39.69-18.43l-14.31-52.07 l-3.97-5.17l15.02,54.02c0,0-32.5,15.31-35.37,16.88c-2.86,1.57-4.67,4.73-4.67,4.73s-1.78-1.71-5.9-1.61 c-4.12,0.1-39.59,3.92-39.59,3.92l-15.06-53.62l-0.67,6.79l14.6,51.12L172.46,164.13z" class="st47"/></g></g></svg>